<?xml version="1.0" encoding="UTF-8" standalone="no"?>
<svg
   xmlns:dc="http://purl.org/dc/elements/1.1/"
   xmlns:cc="http://creativecommons.org/ns#"
   xmlns:rdf="http://www.w3.org/1999/02/22-rdf-syntax-ns#"
   xmlns:svg="http://www.w3.org/2000/svg"
   xmlns="http://www.w3.org/2000/svg"
   xmlns:sodipodi="http://sodipodi.sourceforge.net/DTD/sodipodi-0.dtd"
   xmlns:inkscape="http://www.inkscape.org/namespaces/inkscape"
   height="30"
   width="20"
   inkscape:version="1.0rc1 (09960d6, 2020-04-09)"
   sodipodi:docname="icon.svg"
   version="1.1"
   viewBox="0 0 19.999999 30"
   id="Artwork">
  <metadata
     id="metadata102">
    <rdf:RDF>
      <cc:Work
         rdf:about="">
        <dc:format>image/svg+xml</dc:format>
        <dc:type
           rdf:resource="http://purl.org/dc/dcmitype/StillImage" />
        <dc:title>WhiteWhite Icon</dc:title>
      </cc:Work>
    </rdf:RDF>
  </metadata>
  <sodipodi:namedview
     inkscape:current-layer="Artwork"
     inkscape:window-maximized="1"
     inkscape:window-y="23"
     inkscape:window-x="0"
     inkscape:cy="15"
     inkscape:cx="10"
     inkscape:zoom="15.833333"
     showgrid="false"
     id="namedview100"
     inkscape:window-height="683"
     inkscape:window-width="1280"
     inkscape:pageshadow="2"
     inkscape:pageopacity="0"
     guidetolerance="10"
     gridtolerance="10"
     objecttolerance="10"
     borderopacity="1"
     bordercolor="#666666"
     pagecolor="#ffffff" />
  <defs
     id="defs83">
    <style
       id="style75">.cls-1{fill:#fff;}.cls-2{clip-path:url(#clip-path);}.cls-3{clip-path:url(#clip-path-2);}</style>
    <clipPath
       id="clip-path">
      <polygon
         id="polygon77"
         points="162.05,139.98 181.5,151.23 181.39,122.18 162.05,111.13 162.05,94.26 200.85,116.68 200.76,83.27 136.29,46.43 136.29,197.41 162.05,182.45 "
         class="cls-1" />
    </clipPath>
    <clipPath
       id="clip-path-2">
      <polygon
         id="polygon80"
         points="104.74,94.26 65.94,116.68 66.03,83.27 130.5,46.43 130.5,197.41 104.74,182.45 "
         class="cls-1" />
    </clipPath>
  </defs>
  <title
     id="title85">WhiteWhite Icon</title>
  <g
     transform="matrix(0.14824698,0,0,0.15653067,-9.7754001,-4.083719)"
     id="g110">
    <polygon
       class="cls-1"
       points="200.76,83.27 136.29,46.43 136.29,197.41 162.05,182.45 162.05,139.98 181.5,151.23 181.39,122.18 162.05,111.13 162.05,94.26 200.85,116.68 "
       id="polygon87" />
    <g
       class="cls-2"
       clip-path="url(#clip-path)"
       id="g91">
      <rect
         class="cls-1"
         x="60.080002"
         y="45.880001"
         width="158.31"
         height="151.72"
         id="rect89" />
    </g>
    <polygon
       class="cls-1"
       points="104.74,94.26 65.94,116.68 66.03,83.27 130.5,46.43 130.5,197.41 104.74,182.45 "
       id="polygon93" />
    <g
       class="cls-3"
       clip-path="url(#clip-path-2)"
       id="g97">
      <rect
         class="cls-1"
         x="59"
         y="45.880001"
         width="158.31"
         height="151.72"
         id="rect95" />
    </g>
  </g>
</svg>
